<svg width="20" height="22" viewBox="0 0 20 22" fill="none" xmlns="http://www.w3.org/2000/svg">
<path d="M17.0976 13.9132V9.73323C17.0976 6.62839 15.1105 3.92099 12.3747 2.90971C12.4066 2.75001 12.4243 2.58681 12.4243 2.42356C12.4244 1.08583 11.3386 0 10.0008 0C8.66311 0 7.57728 1.08583 7.57728 2.42356C7.57728 2.58326 7.595 2.7429 7.62339 2.89548C6.68309 3.22904 5.81373 3.75774 5.07213 4.47451C3.67407 5.82291 2.90409 7.63612 2.90409 9.58064V13.9132C2.90409 14.0658 2.77988 14.1936 2.62374 14.1936C1.31439 14.1936 0.196625 15.18 0.075977 16.4362C0.00854228 17.1352 0.23923 17.8307 0.711155 18.3487C1.17952 18.8633 1.8502 19.1613 2.54919 19.1613H6.82857C7.00599 20.7546 8.36149 22.0001 10.0008 22.0001C11.6402 22.0001 12.9957 20.7546 13.1731 19.1613H17.4525C18.1516 19.1613 18.8222 18.8633 19.2905 18.3487C19.7589 17.8307 19.9896 17.1352 19.9257 16.4362C19.8051 15.18 18.6838 14.1936 17.3779 14.1936C17.2218 14.1935 17.0976 14.0693 17.0976 13.9132ZM10.0008 1.41933C10.5544 1.41933 11.005 1.86998 11.005 2.4235C11.005 2.4696 10.9979 2.51221 10.9908 2.55831C10.7495 2.52282 10.5046 2.49799 10.2598 2.49088C9.83753 2.47665 9.42238 2.5051 9.01077 2.56187C9.00366 2.51576 8.99655 2.47316 8.99655 2.42706C8.99667 1.86998 9.44732 1.41933 10.0008 1.41933ZM10.0008 20.5806C9.1457 20.5806 8.42893 19.9703 8.26212 19.1613H11.7395C11.5728 19.9703 10.856 20.5806 10.0008 20.5806ZM18.5134 16.571C18.5418 16.8761 18.446 17.1707 18.2438 17.3942C18.0344 17.6178 17.7576 17.7419 17.4525 17.7419H2.54925C2.24408 17.7419 1.96735 17.6177 1.76149 17.3942C1.55569 17.1707 1.45987 16.8761 1.48825 16.571C1.53791 16.0352 2.03828 15.6129 2.62374 15.6129C3.56054 15.6129 4.32341 14.85 4.32341 13.9132V9.58064C4.32341 8.02644 4.94081 6.57518 6.05858 5.49646C7.12663 4.4639 8.51764 3.90321 10.0008 3.90321C10.0718 3.90321 10.1392 3.90321 10.2102 3.90677C13.2228 4.01319 15.6783 6.62839 15.6783 9.73323V13.9132C15.6783 14.85 16.4412 15.6129 17.3779 15.6129C17.9634 15.6129 18.4602 16.0352 18.5134 16.571Z" fill="black"></path>
</svg>