<svg xmlns="http://www.w3.org/2000/svg" width="22" height="22" viewBox="0 0 22 22" fill="none">
<path fill-rule="evenodd" clip-rule="evenodd" d="M14.404 9.3851C14.404 11.0587 13.0455 12.4172 11.3718 12.4172C9.6985 12.4172 8.33973 11.0587 8.33973 9.3851C8.33973 8.91689 7.95973 8.53689 7.49152 8.53689C7.02331 8.53689 6.64331 8.91689 6.64331 9.3851C6.64331 11.9949 8.76207 14.1136 11.3718 14.1136C13.9816 14.1136 16.1004 11.9949 16.1004 9.3851C16.1004 8.91689 15.7204 8.53689 15.2522 8.53689C14.7842 8.53689 14.404 8.91689 14.404 9.3851Z" fill="black"></path>
<path fill-rule="evenodd" clip-rule="evenodd" d="M5.51772 5.21528C4.34407 5.29236 3.38837 6.19432 3.26351 7.35711C2.97254 10.0668 2.33035 16.3962 2.01359 19.3469C1.94058 20.026 2.16396 20.7043 2.63 21.2121C3.0898 21.7126 3.74421 22.0001 4.43147 22.0001H18.3256C19.0136 22.0001 19.6686 21.7121 20.1284 21.2105C20.5947 20.7018 20.8173 20.0225 20.7429 19.3425C20.4204 16.3899 19.7671 10.0603 19.4713 7.35304C19.3448 6.19486 18.3942 5.29671 17.226 5.21582C16.8897 2.28196 14.3953 7.24792e-05 11.3719 7.24792e-05C8.34898 7.24792e-05 5.85456 2.28142 5.51772 5.21528ZM17.7849 7.53707C18.0807 10.2446 18.7341 16.574 19.0565 19.5266C19.078 19.7225 19.012 19.9177 18.8779 20.0643C18.7373 20.2176 18.5359 20.3037 18.3256 20.3037H4.43147C4.22111 20.3037 4.02025 20.2179 3.87965 20.0645C3.7453 19.9185 3.67934 19.7236 3.70024 19.5279C4.017 16.5772 4.65919 10.2478 4.95016 7.53842C4.98925 7.17471 5.30845 6.90627 5.68112 6.90627H17.0539C17.4263 6.90627 17.7452 7.17417 17.7849 7.53707ZM15.5128 5.20985C15.1862 3.21839 13.4553 1.69649 11.3719 1.69649C9.28839 1.69649 7.5575 3.21839 7.23097 5.20985H15.5128Z" fill="black"></path>
</svg>